<svg width="34" height="32" viewBox="0 0 34 32" fill="none" xmlns="http://www.w3.org/2000/svg">
<path d="M26.19 32C25.748 31.9996 25.3163 31.8673 24.95 31.62L17.49 26.62C17.4532 26.5946 17.4096 26.581 17.365 26.581C17.3203 26.581 17.2767 26.5946 17.24 26.62L9.77997 31.62C9.40536 31.8701 8.96353 32.0004 8.51314 31.9935C8.06276 31.9866 7.62513 31.8428 7.25837 31.5813C6.89161 31.3198 6.61308 30.9529 6.45976 30.5294C6.30644 30.1058 6.28559 29.6457 6.39997 29.21L8.84997 20.57C8.86155 20.5266 8.86015 20.4807 8.84593 20.438C8.83171 20.3954 8.8053 20.3578 8.76997 20.33L1.70997 14.78C1.33831 14.5031 1.06262 14.1169 0.921555 13.6754C0.780492 13.2339 0.78113 12.7594 0.92338 12.3183C1.06563 11.8772 1.34236 11.4917 1.71476 11.2158C2.08717 10.94 2.53658 10.7876 2.99997 10.78L12 10.44C12.0442 10.4369 12.0866 10.4212 12.1221 10.3945C12.1576 10.3679 12.1846 10.3316 12.2 10.29L15.3 1.86C15.4562 1.43263 15.74 1.06361 16.113 0.802891C16.4859 0.54217 16.9299 0.402344 17.385 0.402344C17.84 0.402344 18.284 0.54217 18.657 0.802891C19.0299 1.06361 19.3137 1.43263 19.47 1.86L22.57 10.29C22.5853 10.3316 22.6123 10.3679 22.6478 10.3945C22.6833 10.4212 22.7257 10.4369 22.77 10.44L31.77 10.78C32.2334 10.7876 32.6828 10.94 33.0552 11.2158C33.4276 11.4917 33.7043 11.8772 33.8466 12.3183C33.9888 12.7594 33.9894 13.2339 33.8484 13.6754C33.7073 14.1169 33.4316 14.5031 33.06 14.78L26 20.33C25.9636 20.3569 25.9363 20.3944 25.922 20.4373C25.9077 20.4803 25.907 20.5266 25.92 20.57L28.37 29.21C28.456 29.5414 28.4645 29.8882 28.3949 30.2234C28.3253 30.5586 28.1795 30.8733 27.9687 31.1431C27.7579 31.4129 27.4878 31.6305 27.1793 31.7791C26.8709 31.9277 26.5323 32.0033 26.19 32ZM17.37 24.58C17.8128 24.5935 18.2413 24.7399 18.6 25L26.06 30C26.0978 30.0287 26.1439 30.0445 26.1913 30.0448C26.2388 30.0452 26.2852 30.0302 26.3234 30.0021C26.3617 29.974 26.3898 29.9342 26.4036 29.8888C26.4174 29.8433 26.4161 29.7946 26.4 29.75L23.95 21.11C23.8294 20.6862 23.8383 20.236 23.9755 19.8172C24.1127 19.3985 24.372 19.0303 24.72 18.76L31.78 13.21C31.8185 13.1829 31.8473 13.1443 31.8622 13.0996C31.8771 13.055 31.8773 13.0067 31.8627 12.962C31.8482 12.9172 31.8197 12.8783 31.7814 12.8509C31.7431 12.8236 31.697 12.8092 31.65 12.81L22.65 12.47C22.2093 12.4528 21.7837 12.3048 21.4275 12.0447C21.0713 11.7847 20.8006 11.4245 20.65 11.01L17.55 2.58C17.536 2.53524 17.5081 2.49611 17.4703 2.46833C17.4325 2.44055 17.3869 2.42557 17.34 2.42557C17.2931 2.42557 17.2474 2.44055 17.2096 2.46833C17.1719 2.49611 17.1439 2.53524 17.13 2.58L14.06 11C13.9093 11.4145 13.6386 11.7747 13.2824 12.0347C12.9262 12.2948 12.5007 12.4428 12.06 12.46L3.05997 12.8C3.01291 12.7992 2.96685 12.8136 2.92855 12.8409C2.89026 12.8683 2.86174 12.9072 2.84719 12.952C2.83265 12.9967 2.83284 13.045 2.84774 13.0896C2.86264 13.1343 2.89146 13.1729 2.92997 13.2L9.99997 18.76C10.3469 19.0312 10.6054 19.3994 10.7425 19.8179C10.8796 20.2363 10.8892 20.6861 10.77 21.11L8.32997 29.75C8.31541 29.7933 8.31534 29.8401 8.32977 29.8834C8.34421 29.9267 8.37236 29.9641 8.40997 29.99C8.4462 30.021 8.4923 30.038 8.53997 30.038C8.58764 30.038 8.63374 30.021 8.66997 29.99L16.13 24.99C16.4946 24.7482 16.9225 24.6194 17.36 24.62L17.37 24.58Z" fill="#FF7A00"/>
</svg>
