<?xml version="1.0" standalone="no"?>
<!DOCTYPE svg PUBLIC "-//W3C//DTD SVG 20010904//EN"
 "http://www.w3.org/TR/2001/REC-SVG-20010904/DTD/svg10.dtd">
<svg version="1.0" xmlns="http://www.w3.org/2000/svg"
 width="984.000000pt" height="984.000000pt" viewBox="0 0 984.000000 984.000000"
 preserveAspectRatio="xMidYMid meet">
<metadata>
Created by potrace 1.14, written by Peter Selinger 2001-2017
</metadata>
<g transform="translate(0.000000,984.000000) scale(0.100000,-0.100000)"
fill="#000000" stroke="none">
<path d="M5042 9161 c-78 -33 -145 -60 -147 -61 -3 0 -22 -8 -42 -16 -117 -45
-135 -69 -95 -124 26 -36 129 -166 147 -186 6 -6 24 -28 40 -50 17 -21 54 -67
83 -103 68 -85 43 -54 301 -376 124 -154 227 -282 231 -285 7 -7 49 -59 80
-100 14 -18 60 -76 103 -129 43 -53 91 -112 107 -131 15 -19 62 -78 104 -130
105 -131 113 -140 213 -265 48 -60 92 -115 98 -122 5 -7 15 -18 20 -25 6 -7
28 -35 50 -63 22 -27 47 -58 55 -68 8 -11 20 -24 25 -31 35 -39 115 -145 115
-152 0 -5 -20 -18 -45 -29 -25 -11 -45 -23 -45 -27 0 -5 -4 -8 -8 -8 -7 0
-128 -67 -182 -101 -65 -40 -465 -269 -470 -269 -4 0 -13 -7 -20 -15 -7 -9
-15 -13 -18 -11 -3 3 -19 -5 -36 -17 -17 -12 -44 -29 -61 -38 -16 -9 -111 -63
-210 -120 l-180 -104 -110 56 c-60 30 -135 68 -165 84 -30 16 -57 30 -60 30
-3 1 -120 59 -260 130 -592 299 -561 287 -646 250 -22 -9 -48 -21 -59 -25 -11
-5 -35 -14 -52 -22 -18 -7 -33 -16 -33 -20 0 -5 -3 -7 -8 -6 -4 2 -26 -5 -49
-16 -28 -12 -45 -28 -52 -46 -8 -26 -2 -36 92 -146 56 -66 108 -127 117 -138
8 -10 26 -31 40 -46 14 -15 45 -52 70 -81 25 -29 54 -63 65 -76 33 -38 257
-300 300 -352 11 -12 35 -39 52 -60 18 -20 33 -40 33 -46 0 -5 -17 -20 -38
-33 -93 -56 -115 -74 -222 -182 -47 -47 -92 -99 -100 -115 -8 -17 -19 -37 -25
-45 -17 -23 -38 -91 -30 -98 39 -40 305 -36 405 5 8 4 22 7 30 9 8 1 55 17
103 37 58 23 90 31 92 23 5 -16 14 -51 35 -131 10 -38 28 -104 39 -145 12 -41
23 -82 25 -90 11 -44 56 -209 65 -237 5 -18 7 -33 4 -33 -3 0 -1 -6 5 -12 5
-7 13 -30 16 -52 4 -21 9 -42 12 -47 3 -5 7 -19 9 -30 3 -12 12 -47 21 -78 9
-31 17 -63 19 -71 2 -12 15 -57 31 -115 2 -5 8 -30 15 -55 7 -25 16 -51 22
-57 14 -19 61 -15 90 7 14 11 28 20 31 20 3 0 29 16 56 35 27 19 52 35 55 35
6 0 62 39 80 55 29 26 46 68 51 121 4 33 10 66 15 75 4 9 6 19 3 22 -3 3 0 43
7 88 6 46 13 93 14 104 3 22 11 85 20 155 3 25 7 56 10 70 2 14 7 44 10 68 3
23 8 61 11 85 4 23 8 56 9 72 2 17 6 49 9 73 3 23 9 61 12 85 3 23 7 53 9 67
2 14 7 50 11 80 4 30 9 58 10 63 1 4 2 22 3 40 1 31 6 35 84 72 45 21 174 83
287 138 313 151 314 152 323 149 4 -1 7 3 7 8 0 6 4 10 9 10 5 0 83 35 173 78
90 43 178 85 196 93 17 7 32 17 32 21 0 5 6 8 13 8 7 0 54 20 105 45 51 25 96
45 101 45 8 0 50 -118 57 -158 1 -8 6 -21 10 -30 4 -9 8 -22 9 -28 3 -11 63
-210 98 -319 12 -38 22 -72 22 -75 1 -3 16 -52 34 -110 18 -58 44 -143 58
-190 14 -47 37 -120 50 -163 14 -43 26 -84 27 -90 2 -7 6 -19 9 -27 20 -54 34
-109 29 -114 -3 -3 -1 -6 5 -6 5 0 10 -6 10 -12 0 -7 11 -47 23 -88 13 -41 24
-77 25 -80 2 -9 37 -124 43 -140 3 -8 6 -19 8 -25 1 -5 14 -48 29 -95 15 -47
29 -94 32 -105 4 -19 39 -132 51 -165 3 -8 6 -19 7 -25 2 -5 19 -64 40 -130
20 -66 39 -129 42 -140 3 -11 7 -27 11 -35 3 -8 6 -17 7 -20 0 -3 11 -39 24
-80 13 -41 25 -82 26 -90 2 -8 4 -16 5 -17 2 -2 4 -7 5 -13 1 -5 4 -12 5 -15
1 -3 4 -9 5 -15 1 -5 3 -11 5 -12 2 -3 5 -17 14 -55 9 -40 35 -80 56 -86 13
-3 48 13 107 51 49 31 94 62 101 69 7 7 17 13 22 13 5 0 15 6 22 13 7 7 27 22
44 32 18 11 54 35 80 53 l49 33 2 102 c1 56 5 217 9 357 3 140 7 321 8 402 0
82 3 148 6 148 3 0 6 82 6 183 1 100 4 283 8 407 17 636 32 1212 36 1441 1 58
5 111 9 117 6 9 180 81 436 178 50 19 103 41 118 49 16 8 35 15 43 15 8 0 22
4 32 10 9 5 71 30 137 56 245 94 251 97 387 200 190 144 320 306 367 459 25
82 28 215 6 268 -22 53 -81 104 -160 139 -97 44 -180 58 -305 53 -128 -5 -155
-10 -335 -59 -69 -19 -230 -90 -470 -207 -143 -69 -323 -157 -400 -194 -77
-37 -174 -85 -216 -105 l-77 -37 -81 51 c-44 28 -133 85 -196 126 -64 41 -124
79 -135 85 -11 5 -20 13 -20 17 0 5 -4 8 -9 8 -9 0 -131 77 -141 89 -3 4 -16
12 -30 19 -27 13 -62 34 -70 42 -9 9 -69 50 -73 50 -3 0 -54 32 -113 71 -60
39 -136 89 -169 110 -33 21 -64 42 -70 46 -5 5 -22 14 -37 22 -15 8 -37 22
-47 33 -11 10 -23 18 -26 18 -4 0 -26 14 -50 30 -24 17 -48 30 -53 30 -6 0
-12 3 -14 8 -3 8 -56 45 -78 55 -8 4 -54 33 -102 64 -181 120 -442 288 -452
292 -6 2 -20 12 -31 22 -11 10 -31 24 -45 31 -40 21 -115 72 -118 81 -2 4 -8
7 -13 7 -6 0 -37 18 -69 40 -32 22 -63 40 -69 40 -5 0 -11 3 -13 8 -3 8 -64
52 -72 52 -3 0 -63 38 -133 85 -70 47 -132 85 -138 85 -5 0 -74 -27 -153 -59z"/>
<path d="M4227 8684 c-1 -1 -27 -5 -58 -8 -31 -4 -65 -8 -75 -10 -11 -2 -41
-7 -69 -10 -64 -9 -100 -15 -150 -26 -22 -5 -56 -12 -75 -15 -46 -9 -65 -13
-65 -15 0 -1 -7 -3 -15 -5 -62 -13 -87 -20 -175 -45 -96 -27 -309 -103 -410
-145 -60 -25 -114 -47 -120 -49 -19 -4 -354 -176 -365 -186 -3 -3 -21 -14 -40
-24 -19 -11 -53 -31 -75 -44 -22 -14 -40 -24 -41 -21 0 2 -8 -4 -18 -13 -10
-10 -38 -30 -64 -45 -26 -15 -49 -30 -52 -33 -3 -3 -45 -35 -94 -70 -242 -173
-528 -440 -707 -660 -24 -30 -52 -64 -61 -75 -24 -28 -70 -89 -88 -115 -14
-20 -36 -49 -60 -77 -5 -7 -10 -17 -10 -23 0 -5 -4 -10 -10 -10 -5 0 -10 -7
-10 -15 0 -8 -4 -15 -10 -15 -5 0 -10 -7 -10 -15 0 -8 -4 -15 -10 -15 -5 0
-10 -7 -10 -15 0 -8 -4 -15 -10 -15 -5 0 -10 -4 -10 -9 0 -6 -13 -29 -29 -53
-15 -24 -39 -63 -52 -88 -13 -25 -26 -47 -29 -50 -13 -11 -60 -100 -54 -100 4
0 0 -8 -9 -18 -14 -15 -69 -126 -152 -307 -10 -22 -18 -46 -18 -52 0 -7 -4
-13 -8 -13 -4 0 -10 -11 -13 -25 -3 -13 -10 -34 -15 -47 -5 -13 -10 -27 -11
-33 -1 -5 -7 -19 -13 -30 -6 -11 -12 -22 -12 -25 -1 -3 -13 -41 -27 -85 -14
-44 -35 -112 -47 -150 -20 -66 -25 -85 -37 -144 -3 -14 -7 -28 -9 -31 -2 -4
-7 -22 -10 -41 -3 -19 -10 -50 -15 -69 -5 -19 -11 -52 -14 -74 -4 -21 -8 -41
-10 -45 -2 -3 -6 -28 -10 -56 -3 -27 -8 -66 -11 -85 -3 -19 -7 -57 -10 -85 -3
-27 -7 -60 -9 -73 -24 -119 -25 -738 -1 -857 2 -11 4 -28 4 -38 1 -21 7 -17
82 45 24 20 64 53 89 73 25 20 54 44 65 53 11 10 47 37 80 62 69 52 81 61 98
75 30 25 251 186 331 240 153 105 162 94 -85 95 l-217 0 -4 25 c-3 14 -1 25 4
25 5 0 4 8 -1 19 -6 10 -8 21 -5 24 3 3 8 25 10 49 7 83 14 153 18 173 2 11 7
45 11 75 4 30 9 64 11 75 2 11 7 34 10 50 13 75 57 258 81 335 14 47 26 90 28
95 1 6 5 17 8 25 4 8 16 42 27 75 23 64 29 79 54 137 9 20 16 38 16 41 0 3 20
48 45 100 25 53 45 100 45 106 0 5 4 11 8 13 5 2 23 32 41 68 65 131 67 134
112 141 22 3 42 2 45 -3 3 -5 11 -5 17 -1 14 10 176 9 201 0 9 -4 16 -3 16 1
0 4 24 6 52 4 81 -4 171 -2 176 3 3 3 11 0 18 -6 7 -5 14 -6 17 -2 4 7 139 8
257 3 14 0 76 0 138 1 62 1 115 -1 118 -4 7 -7 -34 -78 -50 -89 -6 -4 -7 -8
-3 -8 5 0 0 -15 -11 -32 -30 -51 -167 -327 -177 -358 -6 -19 -46 -123 -58
-150 -6 -14 -11 -27 -12 -30 -1 -3 -4 -12 -8 -20 -31 -76 -147 -476 -147 -506
0 -8 42 13 97 48 54 33 150 92 213 130 63 39 116 71 118 73 2 1 25 60 52 131
26 71 59 152 71 179 13 28 23 52 24 55 1 9 134 275 166 330 57 100 142 235
152 241 5 4 43 6 83 6 41 0 76 2 78 4 2 2 6 18 9 34 18 100 60 182 140 271
l39 43 -51 3 -50 3 42 51 c23 27 56 68 72 89 17 21 42 52 56 69 14 17 37 44
50 60 13 16 29 34 34 40 6 6 28 31 49 56 157 182 471 502 646 660 51 47 114
104 139 127 25 24 51 43 56 43 7 0 10 -182 10 -525 -1 -289 2 -530 5 -534 10
-16 735 -376 752 -374 9 1 40 17 70 34 29 17 67 39 83 48 75 41 245 143 245
147 0 2 -178 4 -396 4 -218 -1 -399 2 -402 5 -4 3 -7 277 -7 608 l0 602 -94
115 c-51 63 -107 132 -123 152 -16 20 -37 46 -46 57 -44 51 -52 62 -52 66 0 3
-8 13 -17 23 -10 10 -56 66 -102 125 l-84 107 -44 -3 c-25 -1 -45 -3 -46 -3z
m-107 -493 c-5 -11 -14 -21 -19 -23 -33 -11 -535 -508 -642 -635 -90 -107
-224 -259 -231 -261 -4 -2 -8 -8 -8 -14 0 -6 -15 -27 -32 -47 -31 -35 -44 -51
-117 -146 -17 -22 -43 -55 -57 -73 -15 -18 -41 -54 -58 -80 -58 -90 0 -82
-614 -82 -591 0 -552 -3 -507 46 6 6 21 26 35 44 50 66 107 128 255 275 178
178 231 224 378 332 21 16 43 33 50 38 63 54 347 225 507 305 109 55 339 153
358 153 6 0 12 4 12 9 0 4 3 7 8 6 4 -1 43 10 88 25 44 15 89 30 100 32 10 3
78 20 149 39 72 19 146 37 165 39 19 3 35 6 35 7 0 2 22 6 90 15 27 4 52 8 54
11 10 10 11 2 1 -15z"/>
<path d="M3685 5527 c-44 -24 -105 -57 -135 -74 -30 -16 -86 -47 -125 -69 -38
-21 -71 -42 -73 -46 -2 -4 -9 -8 -14 -8 -6 0 -54 -25 -105 -55 -52 -30 -98
-55 -104 -55 -5 0 -9 -4 -9 -9 0 -5 -10 -13 -22 -17 -12 -3 -44 -21 -72 -39
-28 -17 -58 -35 -66 -38 -8 -4 -28 -16 -45 -26 -16 -10 -57 -35 -90 -54 -33
-20 -65 -41 -71 -46 -6 -5 -25 -16 -42 -25 -17 -9 -50 -29 -74 -44 -24 -16
-59 -38 -78 -48 -19 -10 -37 -21 -40 -24 -3 -3 -48 -33 -100 -65 -52 -33 -141
-90 -198 -127 -57 -37 -107 -68 -112 -68 -5 0 -10 -3 -12 -8 -3 -7 -174 -123
-193 -131 -5 -2 -12 -7 -15 -11 -3 -3 -63 -46 -135 -95 -144 -98 -305 -214
-435 -314 -122 -93 -273 -213 -285 -225 -5 -6 -37 -33 -70 -61 -74 -62 -240
-227 -322 -320 -109 -124 -108 -122 -215 -269 -37 -50 -72 -96 -78 -103 -5 -7
-10 -14 -10 -17 0 -3 -13 -24 -29 -48 -43 -65 -169 -298 -176 -328 -3 -9 -17
-44 -30 -75 -20 -47 -68 -212 -81 -280 -25 -135 -28 -349 -6 -450 6 -27 13
-59 16 -70 39 -177 174 -390 326 -515 30 -25 57 -48 60 -51 44 -50 367 -210
455 -225 11 -2 45 -10 75 -19 30 -8 69 -18 85 -20 17 -3 55 -10 85 -15 109
-19 178 -24 365 -24 164 -1 349 9 365 19 3 2 32 6 64 10 33 3 62 8 65 10 4 2
27 6 51 10 76 10 340 78 340 87 0 4 -8 8 -17 9 -10 0 -25 2 -33 4 -20 4 -89
16 -120 20 -51 8 -197 34 -265 49 -39 8 -82 17 -95 20 -14 3 -36 8 -50 11 -14
3 -34 8 -45 10 -11 3 -29 7 -40 10 -35 8 -199 53 -235 65 -19 6 -42 13 -50 15
-15 4 -73 25 -120 43 -14 5 -29 11 -35 12 -5 1 -55 25 -110 52 -289 145 -395
299 -350 508 4 19 10 40 13 45 4 6 7 15 8 22 5 29 63 129 117 201 91 122 266
294 401 395 28 22 53 43 54 48 2 5 10 9 18 9 8 0 14 3 14 8 0 4 17 18 38 32
20 14 42 29 49 35 7 5 18 15 26 21 21 18 390 260 407 267 8 4 47 27 85 52 39
24 76 44 83 45 6 0 12 4 12 8 0 5 12 15 28 23 15 8 64 35 110 61 46 27 88 48
93 48 5 0 9 3 9 8 0 4 20 16 45 27 25 11 45 23 45 28 0 4 5 7 11 7 6 0 58 27
117 59 159 88 622 320 622 313 0 -4 4 -2 8 3 4 6 50 30 102 55 52 25 97 47
100 50 3 3 10 6 15 7 6 1 62 26 125 56 149 70 251 117 255 117 2 0 38 16 82
36 146 67 168 76 338 149 94 40 180 75 192 79 l21 7 -19 72 c-11 40 -27 97
-36 128 l-16 55 -88 -1 c-234 -4 -424 63 -556 197 -32 32 -111 168 -97 168 3
0 2 6 -4 13 -19 23 -34 102 -33 177 0 82 4 109 20 138 6 11 8 22 4 25 -3 4 -1
12 5 19 6 7 10 15 10 18 2 37 107 233 154 286 22 24 23 41 4 60 -20 19 -21 19
-111 -29z"/>
<path d="M6029 4828 c0 -2 -2 -12 -3 -23 -2 -11 -6 -42 -10 -70 -12 -76 -14
-95 -21 -158 -4 -32 -8 -67 -10 -78 -3 -15 2 -19 28 -20 18 -1 36 0 42 1 5 1
17 1 25 1 8 0 49 -1 90 -1 41 0 82 0 90 0 60 0 171 0 177 1 5 1 10 0 13 -1 15
-5 168 -2 178 4 7 4 17 4 23 0 19 -11 179 -8 192 5 8 8 8 11 -2 11 -7 0 -10 4
-7 9 3 4 -3 31 -14 60 -10 28 -18 53 -18 54 1 1 -7 29 -17 62 -9 33 -18 65
-20 70 -1 6 -7 21 -12 35 -6 14 -9 28 -6 33 2 4 -158 7 -356 7 -199 0 -361 -1
-362 -2z"/>
<path d="M6844 4402 c-2 -85 -17 -207 -39 -332 -15 -83 -56 -253 -66 -271 -4
-9 -10 -27 -13 -40 -5 -29 -65 -202 -95 -278 -53 -132 -154 -339 -223 -459
-26 -46 -48 -88 -48 -93 0 -5 -4 -9 -10 -9 -5 0 -10 -7 -10 -15 0 -8 -4 -15
-9 -15 -5 0 -14 -13 -21 -30 -7 -16 -20 -30 -29 -31 -9 0 -335 -1 -724 -2
-463 -1 -711 1 -716 8 -4 6 -6 149 -6 318 l1 309 -35 18 c-47 24 -142 114
-176 168 -15 23 -31 42 -34 42 -4 0 -26 -9 -49 -20 -22 -11 -45 -20 -49 -20
-5 0 -8 -179 -8 -397 0 -219 -1 -405 -3 -413 -3 -13 -90 -15 -715 -14 -818 2
-757 1 -757 14 0 16 -44 80 -55 80 -10 0 -96 -41 -105 -50 -3 -3 -30 -18 -60
-34 -71 -37 -148 -79 -235 -129 -38 -22 -88 -50 -110 -61 -21 -12 -45 -27 -53
-33 -7 -7 -19 -13 -27 -13 -7 0 -15 -3 -17 -8 -1 -4 -36 -27 -76 -51 -40 -24
-70 -46 -67 -49 2 -3 143 -5 313 -4 l309 0 89 -120 c49 -66 96 -129 104 -138
35 -42 47 -57 75 -95 17 -22 39 -50 50 -61 11 -12 27 -31 35 -43 17 -22 99
-116 170 -194 188 -209 448 -463 646 -634 27 -23 63 -53 79 -67 l30 -27 -35 6
c-19 3 -48 8 -65 11 -30 4 -90 15 -111 20 -51 10 -198 48 -235 60 -25 8 -54
16 -65 18 -71 14 -342 124 -519 212 -332 163 -610 352 -854 579 -74 68 -222
221 -259 265 -14 17 -29 30 -35 30 -9 0 -147 -96 -197 -137 -8 -7 -44 -35 -80
-63 -36 -29 -68 -58 -72 -65 -5 -7 7 -30 30 -56 54 -63 328 -337 387 -386 28
-23 61 -51 75 -63 14 -12 52 -43 85 -68 33 -25 62 -49 65 -52 3 -4 28 -22 55
-40 28 -19 52 -37 53 -42 2 -4 7 -8 12 -8 4 0 54 -31 111 -68 292 -192 672
-372 984 -466 50 -15 99 -31 110 -35 27 -11 205 -54 231 -56 11 -1 24 -4 30
-7 5 -3 25 -9 44 -12 19 -3 73 -12 120 -20 93 -16 160 -26 230 -32 25 -2 77
-7 115 -11 147 -16 708 -7 815 13 14 2 50 6 80 9 30 3 66 7 80 10 14 3 41 8
60 11 47 7 81 13 155 29 11 3 29 7 40 9 43 9 194 49 275 73 113 33 129 38 172
57 21 9 39 16 40 15 2 0 16 4 31 10 16 6 31 11 33 11 3 0 26 10 52 21 25 12
52 22 59 23 7 1 19 8 25 14 7 7 18 12 25 12 7 0 59 22 115 49 57 27 107 49
112 49 5 0 12 4 15 9 3 5 22 17 41 26 19 10 42 21 50 26 8 5 65 39 127 75 61
36 116 66 122 66 5 0 11 4 13 8 2 4 41 34 88 65 100 67 320 236 376 290 21 20
54 47 71 60 18 12 33 28 33 35 0 6 4 12 8 12 7 0 192 178 192 185 0 2 17 21
38 43 48 50 133 149 151 176 8 12 18 23 21 26 4 3 36 46 73 95 36 50 71 95 77
102 5 7 10 15 10 18 0 3 15 27 33 53 54 77 157 248 157 260 0 7 5 12 10 12 6
0 10 6 10 14 0 8 6 21 13 28 11 11 27 39 32 58 0 3 24 51 53 107 29 57 52 105
52 108 0 3 -62 -37 -137 -88 -161 -109 -225 -142 -303 -155 -47 -9 -186 -8
-230 1 -45 9 -136 42 -163 60 -18 12 -90 14 -392 13 -203 -1 -382 1 -397 2
l-26 4 21 36 c12 21 25 39 29 40 4 2 8 10 8 17 0 7 15 40 34 74 19 33 38 70
42 83 3 13 11 26 16 29 5 3 10 12 12 20 1 8 9 29 19 48 9 19 17 40 17 48 0 7
5 13 10 13 6 0 10 6 10 14 0 7 9 34 20 59 18 40 76 194 84 222 2 6 6 17 9 25
3 8 16 47 27 86 21 70 21 73 4 130 -10 33 -18 61 -19 64 -3 15 -37 127 -42
140 -3 8 -14 42 -24 75 -33 113 -47 160 -74 245 -15 47 -30 97 -32 112 -3 15
-10 32 -17 37 -8 7 -11 -6 -12 -47z m-2359 -2529 c0 -337 -2 -613 -4 -613 -8
0 -155 122 -251 208 -30 27 -72 64 -94 83 -49 43 -318 303 -360 348 -17 18
-52 55 -77 82 -40 42 -132 144 -192 213 -55 62 -232 279 -235 286 -2 5 270 8
605 7 l608 -2 0 -612z m1558 603 c-6 -12 -71 -93 -88 -112 -5 -6 -26 -31 -46
-55 -76 -92 -107 -129 -120 -142 -8 -8 -45 -50 -84 -93 -38 -44 -155 -164
-260 -269 -199 -199 -309 -301 -444 -413 -24 -21 -49 -41 -55 -47 -22 -20
-104 -85 -108 -85 -3 0 -2 1221 1 1228 0 1 273 2 606 1 452 -1 603 -4 598 -13z
m1477 9 c0 -3 -30 -41 -66 -86 -150 -187 -382 -415 -549 -543 -44 -34 -84 -66
-90 -73 -26 -30 -339 -227 -440 -278 -22 -11 -42 -23 -45 -26 -3 -3 -30 -17
-60 -31 -243 -114 -266 -124 -300 -133 -3 -1 -18 -7 -35 -14 -16 -7 -34 -14
-40 -15 -5 -2 -17 -6 -25 -9 -94 -37 -349 -110 -465 -133 -37 -7 -129 -23
-165 -29 -33 -5 -34 -4 -15 10 11 9 44 37 74 63 29 26 63 55 75 65 178 155
466 442 641 642 39 44 75 85 80 91 6 6 21 25 35 43 14 18 40 49 58 69 41 47
177 222 245 317 l52 73 518 1 c284 0 517 -2 517 -4z"/>
</g>
</svg>
